<svg width="162" height="51" viewBox="0 0 162 51" fill="none" xmlns="http://www.w3.org/2000/svg">
<path d="M161.1 45.117C161.1 47.8349 159.038 50.0364 156.487 50.0364H5.51933C2.9697 50.0364 0.900146 47.8349 0.900146 45.117V5.88672C0.900146 3.17016 2.9697 0.960938 5.51933 0.960938H156.486C159.038 0.960938 161.099 3.17016 161.099 5.88672L161.1 45.117Z" fill="#544E50"/>
<path d="M156 1.0216C158.778 1.0216 161.038 3.42338 161.038 6.375V44.625C161.038 47.5766 158.778 49.9784 156 49.9784H6C3.222 49.9784 0.9615 47.5766 0.9615 44.625V6.375C0.9615 3.42338 3.222 1.0216 6 1.0216H156ZM156 3.8147e-06H6C2.7015 3.8147e-06 0 2.87035 0 6.375V44.625C0 48.1297 2.7015 51 6 51H156C159.298 51 162 48.1297 162 44.625V6.375C162 2.87035 159.298 3.8147e-06 156 3.8147e-06Z" fill="#A6A6A6"/>
<path d="M36.1537 25.2237C36.1189 21.1144 39.3205 19.1152 39.4669 19.0221C37.6537 16.2133 34.8433 15.8295 33.8557 15.7989C31.4953 15.535 29.2057 17.2996 28.0033 17.2996C26.7769 17.2996 24.9253 15.8244 22.9297 15.8678C20.3617 15.9098 17.9593 17.4896 16.6417 19.9427C13.9225 24.9445 15.9505 32.2949 18.5557 36.3379C19.8589 38.318 21.3817 40.5288 23.3749 40.451C25.3249 40.3656 26.0533 39.1301 28.4065 39.1301C30.7381 39.1301 31.4221 40.451 33.4549 40.4013C35.5477 40.3656 36.8653 38.4123 38.1229 36.4144C39.6289 34.1449 40.2337 31.9098 40.2577 31.7951C40.2085 31.7772 36.1933 30.149 36.1537 25.2237Z" fill="#FFFFFB"/>
<path d="M32.3137 13.1393C33.3625 11.7457 34.0801 9.84976 33.8809 7.92578C32.3629 7.99718 30.4645 9.04141 29.3713 10.4044C28.4041 11.6054 27.5401 13.574 27.7633 15.4253C29.4685 15.5605 31.2193 14.5112 32.3137 13.1393Z" fill="#FFFFFB"/>
<path d="M58.8599 12.7594C58.8599 14.2601 58.4363 15.3897 57.5903 16.1483C56.8067 16.8483 55.6931 17.1989 54.2507 17.1989C53.5355 17.1989 52.9235 17.1658 52.4111 17.0995V8.89996C53.0795 8.78521 53.7995 8.72656 54.5771 8.72656C55.9511 8.72656 56.9867 9.04404 57.6851 9.67899C58.4675 10.3968 58.8599 11.4232 58.8599 12.7594ZM57.5339 12.7964C57.5339 11.8235 57.2915 11.0777 56.8067 10.5575C56.3219 10.0385 55.6139 9.77844 54.6815 9.77844C54.2855 9.77844 53.9483 9.80649 53.6687 9.86514V16.0986C53.8235 16.1241 54.1067 16.1356 54.5183 16.1356C55.4807 16.1356 56.2235 15.8513 56.7467 15.2826C57.2699 14.714 57.5339 13.8852 57.5339 12.7964Z" fill="#FFFFFB"/>
<path d="M65.8907 14.07C65.8907 14.9944 65.6423 15.7518 65.1455 16.3459C64.6247 16.9566 63.9347 17.2614 63.0731 17.2614C62.2427 17.2614 61.5815 16.9694 61.0883 16.3829C60.5963 15.7977 60.3503 15.0594 60.3503 14.1695C60.3503 13.2387 60.6035 12.475 61.1123 11.8821C61.6211 11.2893 62.3051 10.9922 63.1667 10.9922C63.9971 10.9922 64.6643 11.2842 65.1695 11.8694C65.6495 12.438 65.8907 13.1724 65.8907 14.07ZM64.5863 14.1134C64.5863 13.5588 64.4735 13.0832 64.2491 12.6867C63.9851 12.2073 63.6095 11.9676 63.1211 11.9676C62.6159 11.9676 62.2319 12.2073 61.9679 12.6867C61.7423 13.0832 61.6307 13.5664 61.6307 14.1376C61.6307 14.6922 61.7435 15.1678 61.9679 15.5643C62.2403 16.0437 62.6195 16.2834 63.1091 16.2834C63.5891 16.2834 63.9659 16.0399 64.2371 15.5516C64.4699 15.1474 64.5863 14.668 64.5863 14.1134Z" fill="#FFFFFB"/>
<path d="M75.3181 11.1152L73.5481 17.1256H72.3961L71.6629 14.5157C71.4769 13.8641 71.3257 13.2164 71.2081 12.5738H71.1853C71.0761 13.2343 70.9249 13.8807 70.7305 14.5157L69.9517 17.1256H68.7865L67.1221 11.1152H68.4145L69.0541 13.9725C69.2089 14.6483 69.3361 15.2921 69.4381 15.9016H69.4609C69.5545 15.3992 69.7093 14.7592 69.9277 13.9853L70.7305 11.1165H71.7553L72.5245 13.9241C72.7105 14.6087 72.8617 15.2679 72.9781 15.9029H73.0129C73.0981 15.2845 73.2265 14.6253 73.3969 13.9241L74.0833 11.1165H75.3181V11.1152Z" fill="#FFFFFB"/>
<path d="M81.8375 17.1268H80.5799V13.6843C80.5799 12.6235 80.2007 12.0931 79.4399 12.0931C79.0667 12.0931 78.7655 12.2385 78.5315 12.5304C78.2999 12.8224 78.1823 13.1667 78.1823 13.5606V17.1255H76.9247V12.8339C76.9247 12.306 76.9092 11.7336 76.8792 11.1139H77.9843L78.0431 12.0536H78.0779C78.2243 11.7616 78.4427 11.5206 78.7295 11.3281C79.0703 11.1037 79.4519 10.9902 79.8695 10.9902C80.3975 10.9902 80.8367 11.1713 81.1859 11.5347C81.6203 11.9796 81.8375 12.6439 81.8375 13.5262V17.1268Z" fill="#FFFFFB"/>
<path d="M85.3055 17.1256H84.0491V8.35742H85.3055V17.1256Z" fill="#FFFFFB"/>
<path d="M92.7096 14.07C92.7096 14.9944 92.4612 15.7518 91.9644 16.3459C91.4436 16.9566 90.7524 17.2614 89.892 17.2614C89.0604 17.2614 88.3992 16.9694 87.9072 16.3829C87.4152 15.7977 87.1692 15.0594 87.1692 14.1695C87.1692 13.2387 87.4224 12.475 87.9312 11.8821C88.44 11.2893 89.124 10.9922 89.9844 10.9922C90.816 10.9922 91.482 11.2842 91.9884 11.8694C92.4684 12.438 92.7096 13.1724 92.7096 14.07ZM91.404 14.1134C91.404 13.5588 91.2912 13.0832 91.0668 12.6867C90.804 12.2073 90.4272 11.9676 89.94 11.9676C89.4336 11.9676 89.0496 12.2073 88.7868 12.6867C88.5612 13.0832 88.4496 13.5664 88.4496 14.1376C88.4496 14.6922 88.5624 15.1678 88.7868 15.5643C89.0592 16.0437 89.4384 16.2834 89.928 16.2834C90.408 16.2834 90.7836 16.0399 91.0548 15.5516C91.2888 15.1474 91.404 14.668 91.404 14.1134Z" fill="#FFFFFB"/>
<path d="M98.7959 17.1249H97.6667L97.5731 16.4326H97.5383C97.1519 16.9847 96.6011 17.2614 95.8859 17.2614C95.3519 17.2614 94.9199 17.079 94.5947 16.7169C94.2995 16.388 94.1519 15.9787 94.1519 15.4929C94.1519 14.7585 94.4399 14.1988 95.0195 13.8112C95.5979 13.4236 96.4115 13.2336 97.4591 13.2426V13.1304C97.4591 12.3386 97.0679 11.9433 96.2843 11.9433C95.7263 11.9433 95.2343 12.0925 94.8095 12.3883L94.5539 11.5111C95.0795 11.1656 95.7287 10.9922 96.4943 10.9922C97.9727 10.9922 98.7143 11.8209 98.7143 13.4784V15.6918C98.7143 16.2924 98.7419 16.7705 98.7959 17.1249ZM97.4903 15.0594V14.1325C96.1031 14.107 95.4095 14.5112 95.4095 15.3438C95.4095 15.6574 95.4887 15.892 95.6507 16.0488C95.8127 16.2057 96.0191 16.2834 96.2651 16.2834C96.5411 16.2834 96.7991 16.1904 97.0343 16.0055C97.2707 15.8193 97.4159 15.5835 97.4699 15.294C97.4831 15.229 97.4903 15.15 97.4903 15.0594Z" fill="#FFFFFB"/>
<path d="M105.942 17.1256H104.826L104.767 16.1604H104.732C104.376 16.8948 103.769 17.262 102.916 17.262C102.234 17.262 101.666 16.9777 101.216 16.409C100.766 15.8404 100.542 15.1022 100.542 14.1956C100.542 13.2228 100.786 12.4349 101.275 11.8331C101.749 11.2721 102.33 10.9916 103.021 10.9916C103.781 10.9916 104.312 11.2631 104.615 11.8076H104.639V8.35742H105.898V15.5063C105.898 16.0916 105.912 16.6309 105.942 17.1256ZM104.639 14.5909V13.5887C104.639 13.4153 104.627 13.2751 104.604 13.168C104.533 12.8467 104.381 12.5764 104.149 12.3584C103.915 12.1403 103.633 12.0307 103.308 12.0307C102.839 12.0307 102.472 12.2283 102.202 12.6248C101.934 13.0214 101.798 13.5275 101.798 14.1459C101.798 14.7401 101.927 15.222 102.185 15.593C102.457 15.9883 102.824 16.1859 103.284 16.1859C103.697 16.1859 104.027 16.0214 104.278 15.6912C104.52 15.3865 104.639 15.0193 104.639 14.5909Z" fill="#FFFFFB"/>
<path d="M116.698 14.07C116.698 14.9944 116.449 15.7518 115.952 16.3459C115.432 16.9566 114.743 17.2614 113.88 17.2614C113.051 17.2614 112.39 16.9694 111.895 16.3829C111.403 15.7977 111.157 15.0594 111.157 14.1695C111.157 13.2387 111.41 12.475 111.919 11.8821C112.428 11.2893 113.112 10.9922 113.975 10.9922C114.804 10.9922 115.472 11.2842 115.976 11.8694C116.456 12.438 116.698 13.1724 116.698 14.07ZM115.394 14.1134C115.394 13.5588 115.282 13.0832 115.057 12.6867C114.792 12.2073 114.418 11.9676 113.928 11.9676C113.424 11.9676 113.04 12.2073 112.775 12.6867C112.549 13.0832 112.438 13.5664 112.438 14.1376C112.438 14.6922 112.55 15.1678 112.775 15.5643C113.047 16.0437 113.426 16.2834 113.916 16.2834C114.396 16.2834 114.774 16.0399 115.045 15.5516C115.277 15.1474 115.394 14.668 115.394 14.1134Z" fill="#FFFFFB"/>
<path d="M123.459 17.1268H122.203V13.6843C122.203 12.6235 121.824 12.0931 121.062 12.0931C120.689 12.0931 120.387 12.2385 120.155 12.5304C119.922 12.8224 119.805 13.1667 119.805 13.5606V17.1255H118.547V12.8339C118.547 12.306 118.532 11.7336 118.502 11.1139H119.606L119.665 12.0536H119.7C119.847 11.7616 120.066 11.5206 120.351 11.3281C120.693 11.1037 121.074 10.9902 121.493 10.9902C122.019 10.9902 122.459 11.1713 122.808 11.5347C123.243 11.9796 123.459 12.6439 123.459 13.5262V17.1268Z" fill="#FFFFFB"/>
<path d="M131.923 12.1149H130.538V15.0347C130.538 15.7767 130.784 16.1477 131.272 16.1477C131.497 16.1477 131.684 16.1273 131.832 16.0853L131.864 17.0989C131.616 17.1983 131.29 17.2481 130.888 17.2481C130.391 17.2481 130.004 17.0874 129.725 16.7661C129.444 16.4448 129.305 15.9042 129.305 15.1456V12.1149H128.478V11.114H129.305V10.0124L130.537 9.61719V11.1128H131.922V12.1149H131.923Z" fill="#FFFFFB"/>
<path d="M138.581 17.1256H137.322V13.7086C137.322 12.6312 136.943 12.0919 136.183 12.0919C135.6 12.0919 135.202 12.4043 134.983 13.029C134.946 13.1603 134.924 13.321 134.924 13.5097V17.1243H133.668V8.35742H134.924V11.9797H134.948C135.344 11.3205 135.912 10.9916 136.648 10.9916C137.168 10.9916 137.599 11.1726 137.941 11.536C138.367 11.9886 138.581 12.6618 138.581 13.5518V17.1256Z" fill="#FFFFFB"/>
<path d="M145.448 13.8352C145.448 14.0749 145.431 14.2763 145.401 14.4408H141.63C141.647 15.035 141.827 15.4876 142.176 15.8012C142.495 16.0817 142.907 16.222 143.411 16.222C143.969 16.222 144.477 16.1276 144.936 15.9377L145.133 16.8659C144.596 17.1132 143.965 17.2369 143.234 17.2369C142.358 17.2369 141.668 16.9628 141.169 16.4145C140.667 15.8663 140.419 15.1306 140.419 14.2075C140.419 13.301 140.651 12.5462 141.117 11.9444C141.605 11.3018 142.263 10.9805 143.095 10.9805C143.909 10.9805 144.527 11.3018 144.944 11.9444C145.281 12.4544 145.448 13.0855 145.448 13.8352ZM144.248 13.4897C144.258 13.0931 144.175 12.7514 144.005 12.4633C143.786 12.0923 143.454 11.9061 143.004 11.9061C142.593 11.9061 142.259 12.0872 142.003 12.4505C141.794 12.74 141.671 13.0855 141.63 13.4897H144.248Z" fill="#FFFFFB"/>
<path d="M64.3738 40.1669H61.6486L60.1558 35.1829H54.967L53.545 40.1669H50.8918L56.0326 23.1992H59.2078L64.3738 40.1669ZM59.7058 33.0919L58.3558 28.6613C58.213 28.2087 57.9454 27.1428 57.5506 25.4649H57.5026C57.3454 26.1865 57.0922 27.2524 56.7442 28.6613L55.4182 33.0919H59.7058Z" fill="#FFFFFB"/>
<path d="M77.5943 33.8998C77.5943 35.9806 77.0651 37.6254 76.0067 38.8328C75.0587 39.9076 73.8815 40.4444 72.4763 40.4444C70.9595 40.4444 69.8699 39.8655 69.2063 38.7078H69.1583V45.153H66.5999V31.9605C66.5999 30.6524 66.5675 29.3098 66.5051 27.9328H68.7551L68.8979 29.8721H68.9459C69.7991 28.4109 71.0939 27.6816 72.8315 27.6816C74.1899 27.6816 75.3239 28.2516 76.2311 29.3927C77.1407 30.5351 77.5943 32.037 77.5943 33.8998ZM74.9879 33.9993C74.9879 32.8084 74.7359 31.8267 74.2295 31.054C73.6763 30.2482 72.9335 29.8453 72.0023 29.8453C71.3711 29.8453 70.7975 30.0697 70.2851 30.5121C69.7715 30.9584 69.4355 31.5411 69.2783 32.2627C69.1991 32.5993 69.1595 32.8747 69.1595 33.0915V35.1315C69.1595 36.0214 69.4163 36.7724 69.9299 37.3857C70.4435 37.9989 71.1107 38.3049 71.9315 38.3049C72.8951 38.3049 73.6451 37.9097 74.1815 37.1217C74.7191 36.3325 74.9879 35.2921 74.9879 33.9993Z" fill="#FFFFFB"/>
<path d="M90.8387 33.8998C90.8387 35.9806 90.3095 37.6254 89.2499 38.8328C88.3031 39.9076 87.1259 40.4444 85.7207 40.4444C84.2039 40.4444 83.1143 39.8655 82.4519 38.7078H82.4039V45.153H79.8455V31.9605C79.8455 30.6524 79.8131 29.3098 79.7507 27.9328H82.0007L82.1435 29.8721H82.1915C83.0435 28.4109 84.3383 27.6816 86.0771 27.6816C87.4343 27.6816 88.5683 28.2516 89.4779 29.3927C90.3839 30.5351 90.8387 32.037 90.8387 33.8998ZM88.2323 33.9993C88.2323 32.8084 87.9791 31.8267 87.4727 31.054C86.9195 30.2482 86.1791 29.8453 85.2467 29.8453C84.6143 29.8453 84.0419 30.0697 83.5283 30.5121C83.0147 30.9584 82.6799 31.5411 82.5227 32.2627C82.4447 32.5993 82.4039 32.8747 82.4039 33.0915V35.1315C82.4039 36.0214 82.6607 36.7724 83.1719 37.3857C83.6855 37.9977 84.3527 38.3049 85.1759 38.3049C86.1395 38.3049 86.8895 37.9097 87.4259 37.1217C87.9635 36.3325 88.2323 35.2921 88.2323 33.9993Z" fill="#FFFFFB"/>
<path d="M105.647 35.4092C105.647 36.8525 105.175 38.0268 104.228 38.9333C103.188 39.924 101.74 40.4187 99.8783 40.4187C98.1599 40.4187 96.7823 40.0668 95.7395 39.3617L96.3323 37.096C97.4555 37.8177 98.6879 38.1798 100.031 38.1798C100.994 38.1798 101.744 37.9477 102.283 37.4862C102.82 37.0246 103.087 36.405 103.087 35.6323C103.087 34.9438 102.866 34.3637 102.423 33.8932C101.983 33.4228 101.248 32.9854 100.22 32.5813C97.4243 31.4733 96.0275 29.8502 96.0275 27.7159C96.0275 26.321 96.5171 25.1773 97.4975 24.2874C98.4743 23.3961 99.7775 22.9512 101.407 22.9512C102.86 22.9512 104.068 23.2202 105.031 23.757L104.391 25.9729C103.491 25.4527 102.474 25.1926 101.335 25.1926C100.435 25.1926 99.7319 25.4285 99.2279 25.8977C98.8019 26.3172 98.5883 26.8284 98.5883 27.4341C98.5883 28.1047 98.8319 28.6593 99.3215 29.0954C99.7475 29.4983 100.522 29.9344 101.645 30.4048C103.019 30.9926 104.028 31.6798 104.677 32.4678C105.324 33.2532 105.647 34.2362 105.647 35.4092Z" fill="#FFFFFB"/>
<path d="M114.106 29.9733H111.286V35.9135C111.286 37.4244 111.782 38.1792 112.778 38.1792C113.236 38.1792 113.615 38.1371 113.915 38.053L113.986 40.1172C113.482 40.3174 112.818 40.4181 111.996 40.4181C110.986 40.4181 110.196 40.0904 109.626 39.4363C109.058 38.781 108.773 37.6819 108.773 36.1379V29.9707H107.093V27.9307H108.773V25.6906L111.286 24.8848V27.9307H114.106V29.9733Z" fill="#FFFFFB"/>
<path d="M126.829 33.9502C126.829 35.8308 126.323 37.3749 125.312 38.5823C124.253 39.8254 122.846 40.4451 121.093 40.4451C119.403 40.4451 118.058 39.8496 117.055 38.6588C116.052 37.4679 115.55 35.9647 115.55 34.1529C115.55 32.257 116.066 30.7041 117.102 29.4966C118.135 28.2879 119.529 27.6836 121.283 27.6836C122.972 27.6836 124.332 28.279 125.358 29.4711C126.339 30.6276 126.829 32.1206 126.829 33.9502ZM124.175 34.0382C124.175 32.9098 123.948 31.9421 123.488 31.135C122.952 30.1584 122.185 29.6713 121.191 29.6713C120.163 29.6713 119.382 30.1596 118.845 31.135C118.386 31.9434 118.159 32.9264 118.159 34.0892C118.159 35.2176 118.386 36.1853 118.845 36.9911C119.399 37.9677 120.171 38.4548 121.169 38.4548C122.145 38.4548 122.912 37.9575 123.465 36.9656C123.937 36.1432 124.175 35.1653 124.175 34.0382Z" fill="#FFFFFB"/>
<path d="M135.145 30.3234C134.892 30.2737 134.622 30.2482 134.339 30.2482C133.439 30.2482 132.743 30.609 132.253 31.332C131.827 31.9695 131.613 32.7753 131.613 33.7481V40.1677H129.056L129.08 31.7859C129.08 30.3757 129.048 29.0918 128.984 27.9341H131.213L131.306 30.275H131.377C131.647 29.4705 132.073 28.8228 132.656 28.337C133.226 27.8997 133.842 27.6816 134.505 27.6816C134.742 27.6816 134.955 27.6995 135.145 27.7314V30.3234Z" fill="#FFFFFB"/>
<path d="M146.587 33.4709C146.587 33.958 146.557 34.3685 146.494 34.7039H138.818C138.848 35.9125 139.219 36.8369 139.932 37.4744C140.579 38.0444 141.415 38.3299 142.442 38.3299C143.579 38.3299 144.616 38.1374 145.548 37.7511L145.949 39.6381C144.859 40.143 143.573 40.3942 142.088 40.3942C140.303 40.3942 138.901 39.8357 137.881 38.7201C136.864 37.6045 136.354 36.1063 136.354 34.227C136.354 32.3821 136.828 30.8457 137.777 29.6204C138.77 28.3123 140.113 27.6582 141.803 27.6582C143.462 27.6582 144.719 28.3123 145.572 29.6204C146.248 30.6596 146.587 31.9448 146.587 33.4709ZM144.148 32.7659C144.164 31.9601 143.998 31.2639 143.651 30.6761C143.208 29.9201 142.528 29.5427 141.612 29.5427C140.776 29.5427 140.095 29.9111 139.576 30.6506C139.15 31.2384 138.896 31.9435 138.818 32.7646H144.148V32.7659Z" fill="#FFFFFB"/>
</svg>
