<svg width="159" height="51" viewBox="0 0 159 51" fill="none" xmlns="http://www.w3.org/2000/svg">
<path d="M153.111 51H5.88889C2.65147 51 0 48.1297 0 44.625V6.375C0 2.87035 2.65147 9.53674e-07 5.88889 9.53674e-07H153.111C156.349 9.53674e-07 159 2.87035 159 6.375V44.625C159 48.1297 156.349 51 153.111 51Z" fill="#544E50"/>
<path d="M153.111 1.02159C155.838 1.02159 158.056 3.42338 158.056 6.375V44.625C158.056 47.5766 155.838 49.9784 153.111 49.9784H5.88889C3.16233 49.9784 0.943694 47.5766 0.943694 44.625V6.375C0.943694 3.42338 3.16233 1.02159 5.88889 1.02159H153.111ZM153.111 9.53674e-07H5.88889C2.65147 9.53674e-07 0 2.87035 0 6.375V44.625C0 48.1297 2.65147 51 5.88889 51H153.111C156.349 51 159 48.1297 159 44.625V6.375C159 2.87035 156.349 9.53674e-07 153.111 9.53674e-07Z" fill="#A6A6A6"/>
<path d="M12.2901 9.60989C11.9441 10.002 11.7439 10.6124 11.7439 11.4029V39.5995C11.7439 40.39 11.9441 41.0004 12.2901 41.3925L12.3755 41.4785L26.9711 25.6845V25.3115L12.3755 9.51745L12.2901 9.60989Z" fill="url(#paint0_linear_11099_11793)"/>
<path d="M31.8308 30.9531L26.9709 25.6858V25.3128L31.8366 20.0455L31.9456 20.114L37.7079 23.6633C39.3523 24.6706 39.3523 26.3281 37.7079 27.3417L31.9456 30.8846L31.8308 30.9531Z" fill="url(#paint1_linear_11099_11793)"/>
<path d="M31.9457 30.8839L26.971 25.4987L12.29 41.3931C12.8362 42.0147 13.7269 42.0896 14.7398 41.468L31.9457 30.8839Z" fill="url(#paint2_linear_11099_11793)"/>
<path d="M31.9457 20.1128L14.7398 9.52867C13.7269 8.91349 12.8362 8.98839 12.29 9.60995L26.971 25.498L31.9457 20.1128Z" fill="url(#paint3_linear_11099_11793)"/>
<path d="M55.8473 13.0618C55.8473 14.1264 55.5529 14.9791 54.9728 15.615C54.3059 16.3688 53.4373 16.7482 52.3729 16.7482C51.3556 16.7482 50.487 16.3625 49.7744 15.6022C49.0604 14.8309 48.7041 13.8842 48.7041 12.751C48.7041 11.6179 49.0604 10.6712 49.7744 9.90619C50.487 9.13959 51.3556 8.75391 52.3729 8.75391C52.8793 8.75391 53.3622 8.86706 53.823 9.07744C54.2823 9.28941 54.6563 9.57628 54.9272 9.93009L54.3118 10.6027C53.8392 9.99863 53.1959 9.70059 52.3729 9.70059C51.6309 9.70059 50.9875 9.98109 50.4413 10.5469C49.901 11.1142 49.6301 11.849 49.6301 12.751C49.6301 13.6531 49.901 14.3942 50.4413 14.9616C50.9875 15.521 51.6309 15.8078 52.3729 15.8078C53.1605 15.8078 53.823 15.521 54.3457 14.9552C54.6902 14.5807 54.886 14.0643 54.9375 13.4045H52.3729V12.4833H55.7943C55.8355 12.6825 55.8473 12.8753 55.8473 13.0618Z" fill="#FFFFFB" stroke="#FFFFFB" stroke-width="0.0761579" stroke-miterlimit="10"/>
<path d="M61.2753 9.86645H58.0614V12.289H60.9588V13.2101H58.0614V15.6326H61.2753V16.5714H57.1516V8.92773H61.2753V9.86645Z" fill="#FFFFFB" stroke="#FFFFFB" stroke-width="0.0761579" stroke-miterlimit="10"/>
<path d="M65.1062 16.5714H64.1964V9.86645H62.2251V8.92773H67.079V9.86645H65.1062V16.5714Z" fill="#FFFFFB" stroke="#FFFFFB" stroke-width="0.0761579" stroke-miterlimit="10"/>
<path d="M70.5918 16.5714V8.92773H71.5002V16.5714H70.5918Z" fill="#FFFFFB" stroke="#FFFFFB" stroke-width="0.0761579" stroke-miterlimit="10"/>
<path d="M75.5264 16.5714H74.6239V9.86645H72.6453V8.92773H77.5051V9.86645H75.5264V16.5714Z" fill="#FFFFFB" stroke="#FFFFFB" stroke-width="0.0761579" stroke-miterlimit="10"/>
<path d="M86.6948 15.5895C85.9984 16.3625 85.1357 16.7482 84.1066 16.7482C83.0716 16.7482 82.2089 16.3625 81.5125 15.5895C80.8177 14.8181 80.4717 13.8714 80.4717 12.751C80.4717 11.6306 80.8177 10.6839 81.5125 9.91256C82.2089 9.13959 83.0716 8.75391 84.1066 8.75391C85.1298 8.75391 85.9925 9.13959 86.6889 9.91894C87.3897 10.6967 87.7356 11.637 87.7356 12.751C87.7356 13.8714 87.3897 14.8181 86.6948 15.5895ZM82.1853 14.9488C82.7095 15.521 83.3469 15.8078 84.1066 15.8078C84.8604 15.8078 85.5037 15.521 86.022 14.9488C86.5446 14.3767 86.8096 13.6419 86.8096 12.751C86.8096 11.8601 86.5446 11.1254 86.022 10.5533C85.5037 9.98109 84.8604 9.69422 84.1066 9.69422C83.3469 9.69422 82.7095 9.98109 82.1853 10.5533C81.6627 11.1254 81.3977 11.8601 81.3977 12.751C81.3977 13.6419 81.6627 14.3767 82.1853 14.9488Z" fill="#FFFFFB" stroke="#FFFFFB" stroke-width="0.0761579" stroke-miterlimit="10"/>
<path d="M89.0122 16.5714V8.92773H90.1164L93.5496 14.8724H93.5893L93.5496 13.403V8.92773H94.458V16.5714H93.5098L89.9147 10.3334H89.8749L89.9147 11.8092V16.5714H89.0122Z" fill="#FFFFFB" stroke="#FFFFFB" stroke-width="0.0761579" stroke-miterlimit="10"/>
<path d="M80.2481 27.7348C77.4818 27.7348 75.2219 30.0139 75.2219 33.1584C75.2219 36.2773 77.4818 38.5803 80.2481 38.5803C83.0203 38.5803 85.2801 36.2773 85.2801 33.1584C85.2801 30.0139 83.0203 27.7348 80.2481 27.7348ZM80.2481 36.4447C78.7302 36.4447 77.4243 35.0884 77.4243 33.1584C77.4243 31.2028 78.7302 29.8705 80.2481 29.8705C81.7659 29.8705 83.0777 31.2028 83.0777 33.1584C83.0777 35.0884 81.7659 36.4447 80.2481 36.4447ZM69.2815 27.7348C66.5093 27.7348 64.2553 30.0139 64.2553 33.1584C64.2553 36.2773 66.5093 38.5803 69.2815 38.5803C72.0522 38.5803 74.3076 36.2773 74.3076 33.1584C74.3076 30.0139 72.0522 27.7348 69.2815 27.7348ZM69.2815 36.4447C67.7621 36.4447 66.4519 35.0884 66.4519 33.1584C66.4519 31.2028 67.7621 29.8705 69.2815 29.8705C70.7993 29.8705 72.1052 31.2028 72.1052 33.1584C72.1052 35.0884 70.7993 36.4447 69.2815 36.4447ZM56.2317 29.3971V31.7017H61.3153C61.1666 32.9894 60.7691 33.9361 60.1596 34.5959C59.4176 35.3928 58.2619 36.2773 56.2317 36.2773C53.1032 36.2773 50.6535 33.5441 50.6535 30.1573C50.6535 26.7706 53.1032 24.0373 56.2317 24.0373C57.9233 24.0373 59.1541 24.7529 60.0624 25.6805L61.5626 24.0565C60.2921 22.7432 58.602 21.7344 56.2317 21.7344C51.9417 21.7344 48.3362 25.5132 48.3362 30.1573C48.3362 34.8015 51.9417 38.5803 56.2317 38.5803C58.5505 38.5803 60.2921 37.7579 61.6613 36.2152C63.0643 34.6963 63.5015 32.5607 63.5015 30.8363C63.5015 30.3008 63.4603 29.8083 63.3867 29.3971H56.2317ZM109.594 31.1837C109.18 29.9709 107.904 27.7348 105.304 27.7348C102.727 27.7348 100.582 29.9326 100.582 33.1584C100.582 36.1961 102.705 38.5803 105.551 38.5803C107.852 38.5803 109.18 37.0615 109.726 36.1769L108.019 34.945C107.449 35.847 106.673 36.4447 105.551 36.4447C104.437 36.4447 103.637 35.8917 103.125 34.8015L109.825 31.8005L109.594 31.1837ZM102.763 32.9894C102.705 30.8984 104.263 29.8274 105.379 29.8274C106.253 29.8274 106.995 30.3008 107.243 30.9781L102.763 32.9894ZM97.317 38.2504H99.5194V22.3129H97.317V38.2504ZM93.7101 28.9429H93.6364C93.1418 28.3086 92.1981 27.7348 91.0026 27.7348C88.494 27.7348 86.2003 30.1191 86.2003 33.1759C86.2003 36.2152 88.494 38.5803 91.0026 38.5803C92.1981 38.5803 93.1418 38.0018 93.6364 37.3483H93.7101V38.1261C93.7101 40.1996 92.6869 41.3136 91.0365 41.3136C89.6909 41.3136 88.8561 40.2617 88.5116 39.3772L86.5963 40.2426C87.1484 41.6802 88.6103 43.4492 91.0365 43.4492C93.6188 43.4492 95.7977 41.8045 95.7977 37.8026V28.0648H93.7101V28.9429ZM91.1911 36.4447C89.6732 36.4447 88.4027 35.0693 88.4027 33.1759C88.4027 31.265 89.6732 29.8705 91.1911 29.8705C92.6869 29.8705 93.8661 31.265 93.8661 33.1759C93.8661 35.0693 92.6869 36.4447 91.1911 36.4447ZM119.905 22.3129H114.638V38.2504H116.834V32.2117H119.905C122.345 32.2117 124.737 30.3008 124.737 27.2615C124.737 24.2238 122.339 22.3129 119.905 22.3129ZM119.963 29.9948H116.834V24.5298H119.963C121.603 24.5298 122.539 26.004 122.539 27.2615C122.539 28.4951 121.603 29.9948 119.963 29.9948ZM133.541 27.7046C131.954 27.7046 130.304 28.4632 129.625 30.1446L131.574 31.0291C131.994 30.1446 132.765 29.8577 133.581 29.8577C134.72 29.8577 135.876 30.5988 135.894 31.9073V32.0746C135.496 31.826 134.645 31.4578 133.598 31.4578C131.499 31.4578 129.36 32.7089 129.36 35.0438C129.36 37.1794 131.079 38.5548 133.012 38.5548C134.491 38.5548 135.306 37.8328 135.819 36.9929H135.894V38.2249H138.015V32.1113C138.015 29.2856 136.066 27.7046 133.541 27.7046ZM133.276 36.4383C132.558 36.4383 131.556 36.0526 131.556 35.0884C131.556 33.8548 132.805 33.3815 133.886 33.3815C134.853 33.3815 135.306 33.6126 135.894 33.917C135.721 35.3928 134.548 36.4383 133.276 36.4383ZM145.744 28.0536L143.219 34.9625H143.144L140.534 28.0536H138.165L142.087 37.7085L139.849 43.0811H142.145L148.188 28.0536H145.744ZM125.944 38.2504H128.147V22.3129H125.944V38.2504Z" fill="#FFFFFB"/>
<defs>
<linearGradient id="paint0_linear_11099_11793" x1="25.6752" y1="39.8931" x2="4.34475" y2="20.1892" gradientUnits="userSpaceOnUse">
<stop stop-color="#00A0FF"/>
<stop offset="0.0066" stop-color="#00A1FF"/>
<stop offset="0.2601" stop-color="#00BEFF"/>
<stop offset="0.5122" stop-color="#00D2FF"/>
<stop offset="0.7604" stop-color="#00DFFF"/>
<stop offset="1" stop-color="#00E3FF"/>
</linearGradient>
<linearGradient id="paint1_linear_11099_11793" x1="39.8492" y1="25.4975" x2="11.3507" y2="25.4975" gradientUnits="userSpaceOnUse">
<stop stop-color="#FFE000"/>
<stop offset="0.4087" stop-color="#FFBD00"/>
<stop offset="0.7754" stop-color="#FFA500"/>
<stop offset="1" stop-color="#FF9C00"/>
</linearGradient>
<linearGradient id="paint2_linear_11099_11793" x1="29.2406" y1="22.5711" x2="0.314822" y2="-4.14899" gradientUnits="userSpaceOnUse">
<stop stop-color="#FF3A44"/>
<stop offset="1" stop-color="#C31162"/>
</linearGradient>
<linearGradient id="paint3_linear_11099_11793" x1="8.59453" y1="50.7734" x2="21.5112" y2="38.8418" gradientUnits="userSpaceOnUse">
<stop stop-color="#32A071"/>
<stop offset="0.0685" stop-color="#2DA771"/>
<stop offset="0.4762" stop-color="#15CF74"/>
<stop offset="0.8009" stop-color="#06E775"/>
<stop offset="1" stop-color="#00F076"/>
</linearGradient>
</defs>
</svg>
