<svg width="24" height="23" viewBox="0 0 24 23" fill="none" xmlns="http://www.w3.org/2000/svg">
<path d="M20.4491 19.5551H16.8931V14.2297C16.8931 12.9598 16.8694 11.325 15.0436 11.325C13.1915 11.325 12.9081 12.7087 12.9081 14.1372V19.5548H9.35213V8.6035H12.7658V10.1001H12.8137C13.1553 9.5415 13.649 9.08197 14.2421 8.77044C14.8353 8.45891 15.5057 8.30705 16.1819 8.33105C19.7861 8.33105 20.4506 10.5981 20.4506 13.5474L20.4491 19.5551ZM5.33963 7.10661C4.19991 7.10679 3.27581 6.22338 3.27562 5.1335C3.27544 4.04363 4.19916 3.15995 5.33887 3.15977C6.47859 3.1595 7.40269 4.04291 7.40287 5.13279C7.40297 5.65617 7.18566 6.15815 6.79872 6.52831C6.41179 6.89847 5.88694 7.10649 5.33963 7.10661ZM7.11769 19.5552H3.55791V8.6035H7.11759V19.5551L7.11769 19.5552ZM22.2219 0.00167035H1.77103C0.804469 -0.00872905 0.0118125 0.73169 0 1.65598V21.2941C0.0114375 22.2188 0.804 22.96 1.77094 22.9503H22.2219C23.1909 22.9617 23.9866 22.2206 24 21.2941V1.65446C23.9862 0.728373 23.1905 -0.0119564 22.2219 0.000146299" fill="#0A66C2"/>
</svg>
