<svg width="29" height="29" viewBox="0 0 29 29" fill="none" xmlns="http://www.w3.org/2000/svg">
    <rect x="2.30371" y="2.06885" width="24.5" height="24.5" rx="5.25" fill="#544E50" />
    <rect x="2.30371" y="2.06885" width="24.5" height="24.5" rx="5.25" fill="#544E50" />
    <rect x="2.30371" y="2.06885" width="24.5" height="24.5" rx="5.25" fill="#544E50" />
    <path d="M20.6787 9.50635C20.6787 10.2312 20.0911 10.8188 19.3662 10.8188C18.6413 10.8188 18.0537 10.2312 18.0537 9.50635C18.0537 8.78147 18.6413 8.19385 19.3662 8.19385C20.0911 8.19385 20.6787 8.78147 20.6787 9.50635Z" fill="#FFFFFB" />
    <path fill-rule="evenodd" clip-rule="evenodd" d="M14.5537 18.6938C16.97 18.6938 18.9287 16.7351 18.9287 14.3188C18.9287 11.9026 16.97 9.94385 14.5537 9.94385C12.1375 9.94385 10.1787 11.9026 10.1787 14.3188C10.1787 16.7351 12.1375 18.6938 14.5537 18.6938ZM14.5537 16.9438C16.0035 16.9438 17.1787 15.7686 17.1787 14.3188C17.1787 12.8691 16.0035 11.6938 14.5537 11.6938C13.104 11.6938 11.9287 12.8691 11.9287 14.3188C11.9287 15.7686 13.104 16.9438 14.5537 16.9438Z" fill="#FFFFFB" />
    <path fill-rule="evenodd" clip-rule="evenodd" d="M5.80371 13.9688C5.80371 11.0286 5.80371 9.55843 6.37593 8.4354C6.87926 7.44755 7.68241 6.6444 8.67026 6.14106C9.7933 5.56885 11.2634 5.56885 14.2037 5.56885H14.9037C17.844 5.56885 19.3141 5.56885 20.4372 6.14106C21.425 6.6444 22.2282 7.44755 22.7315 8.4354C23.3037 9.55843 23.3037 11.0286 23.3037 13.9688V14.6688C23.3037 17.6091 23.3037 19.0793 22.7315 20.2023C22.2282 21.1901 21.425 21.9933 20.4372 22.4966C19.3141 23.0688 17.844 23.0688 14.9037 23.0688H14.2037C11.2634 23.0688 9.7933 23.0688 8.67026 22.4966C7.68241 21.9933 6.87926 21.1901 6.37593 20.2023C5.80371 19.0793 5.80371 17.6091 5.80371 14.6688V13.9688ZM14.2037 7.31885H14.9037C16.4027 7.31885 17.4217 7.32021 18.2094 7.38456C18.9766 7.44725 19.369 7.56087 19.6427 7.70032C20.3012 8.03588 20.8367 8.57131 21.1722 9.22988C21.3117 9.50358 21.4253 9.89594 21.488 10.6632C21.5524 11.4508 21.5537 12.4698 21.5537 13.9688V14.6688C21.5537 16.1679 21.5524 17.1869 21.488 17.9745C21.4253 18.7418 21.3117 19.1341 21.1722 19.4078C20.8367 20.0664 20.3012 20.6018 19.6427 20.9374C19.369 21.0768 18.9766 21.1904 18.2094 21.2531C17.4217 21.3175 16.4027 21.3188 14.9037 21.3188H14.2037C12.7047 21.3188 11.6857 21.3175 10.898 21.2531C10.1308 21.1904 9.73844 21.0768 9.46474 20.9374C8.80618 20.6018 8.27074 20.0664 7.93519 19.4078C7.79573 19.1341 7.68211 18.7418 7.61943 17.9745C7.55507 17.1869 7.55371 16.1679 7.55371 14.6688V13.9688C7.55371 12.4698 7.55507 11.4508 7.61943 10.6632C7.68211 9.89594 7.79573 9.50358 7.93519 9.22988C8.27074 8.57131 8.80618 8.03588 9.46474 7.70032C9.73844 7.56087 10.1308 7.44725 10.898 7.38456C11.6857 7.32021 12.7047 7.31885 14.2037 7.31885Z" fill="#FFFFFB" />
</svg>