<svg width="25" height="25" viewBox="0 0 25 25" fill="none" xmlns="http://www.w3.org/2000/svg">
    <rect x="0.18457" y="0.134277" width="24.3691" height="24.3691" rx="3.48131" fill="#544E50" />
    <path d="M8.7512 8.16862C8.7512 8.98635 8.04241 9.64925 7.16808 9.64925C6.29375 9.64925 5.58496 8.98635 5.58496 8.16862C5.58496 7.35089 6.29375 6.68799 7.16808 6.68799C8.04241 6.68799 8.7512 7.35089 8.7512 8.16862Z" fill="#FFFFFB" />
    <path d="M5.80146 10.7376H8.50764V18.938H5.80146V10.7376Z" fill="#FFFFFB" />
    <path d="M12.8646 10.7376H10.1584V18.938H12.8646C12.8646 18.938 12.8646 16.3564 12.8646 14.7422C12.8646 13.7734 13.1954 12.8003 14.5154 12.8003C16.0071 12.8003 15.9981 14.0682 15.9912 15.0504C15.9821 16.3344 16.0038 17.6446 16.0038 18.938H18.71V14.61C18.687 11.8464 17.9669 10.5731 15.5978 10.5731C14.1909 10.5731 13.3188 11.2118 12.8646 11.7897V10.7376Z" fill="#FFFFFB" />
</svg>