<svg width="98" height="34" viewBox="0 0 98 34" fill="none" xmlns="http://www.w3.org/2000/svg">
    <g clip-path="url(#clip0_5298_32743)">
        <path d="M35.0352 13.7444C34.6296 13.6438 34.1536 13.5366 33.6056 13.426C33.0239 13.3108 32.4321 13.2546 31.8391 13.2584C31.4982 13.2625 31.1579 13.2876 30.8202 13.3338C30.517 13.3676 30.2168 13.4236 29.9218 13.5014V25.7358H25.3867V10.5802C26.3299 10.2585 27.29 9.98882 28.2627 9.77238C29.4797 9.50709 30.7226 9.37948 31.9682 9.39195C32.2112 9.39195 32.5062 9.40871 32.8514 9.43887C33.1967 9.46904 33.5402 9.50926 33.8855 9.55954C34.2307 9.60982 34.576 9.67183 34.9212 9.74222C35.2225 9.80096 35.5177 9.88794 35.8028 10.002L35.0352 13.7444Z" fill="#544E50" />
        <path d="M36.1584 17.8538C36.1317 16.58 36.3543 15.3132 36.8137 14.1248C37.2048 13.1341 37.79 12.2315 38.5349 11.4701C39.2319 10.7697 40.066 10.2208 40.9851 9.85785C41.8913 9.4956 42.8583 9.30959 43.8342 9.30981C46.1068 9.30981 47.9023 10.0048 49.2207 11.3947C50.5392 12.7846 51.1989 14.8287 51.2 17.527C51.2 17.7918 51.19 18.0801 51.1699 18.3951C51.1498 18.7102 51.128 18.9884 51.1079 19.2331H40.8175C40.8579 19.6773 40.9962 20.1069 41.2225 20.4912C41.4489 20.8755 41.7576 21.2048 42.1264 21.4554C42.8974 22.0029 43.932 22.2766 45.2303 22.2766C46.0524 22.2779 46.8728 22.2016 47.6805 22.0487C48.3541 21.9344 49.0129 21.7455 49.6448 21.4856L50.2531 25.1727C49.939 25.3206 49.6133 25.4428 49.2794 25.538C48.834 25.6683 48.382 25.7746 47.9252 25.8565C47.4225 25.9487 46.8945 26.0241 46.3264 26.0861C45.7602 26.1463 45.1913 26.1765 44.6219 26.1766C43.1806 26.1766 41.9276 25.9637 40.8628 25.538C39.8628 25.1547 38.9589 24.5569 38.2148 23.7867C37.5061 23.0314 36.9753 22.1272 36.6612 21.1404C36.3186 20.0788 36.1489 18.9692 36.1584 17.8538ZM46.8124 16.1192C46.7923 15.7362 46.7265 15.357 46.6163 14.9896C46.5091 14.6343 46.3331 14.3034 46.0984 14.0159C45.854 13.7224 45.5508 13.4832 45.2085 13.3137C44.7952 13.1186 44.3413 13.025 43.8845 13.0405C43.4345 13.0285 42.9874 13.1166 42.5756 13.2986C42.2261 13.459 41.9151 13.6928 41.6639 13.984C41.4151 14.2749 41.224 14.6105 41.1008 14.9729C40.9693 15.3436 40.8722 15.7256 40.8108 16.1142L46.8124 16.1192Z" fill="#544E50" />
        <path d="M68.1488 25.213C67.7433 25.3359 67.2762 25.4527 66.7478 25.5633C66.2198 25.6756 65.6684 25.7711 65.0902 25.8515C64.512 25.932 63.9171 25.999 63.3238 26.0493C62.7305 26.0996 62.1506 26.1264 61.6043 26.1264C60.4026 26.1461 59.2072 25.9503 58.0747 25.5482C57.0904 25.1951 56.1964 24.6285 55.4569 23.889C54.731 23.1445 54.1752 22.2513 53.8279 21.2712C53.4382 20.1619 53.2476 18.9926 53.2647 17.817C53.249 16.626 53.4134 15.4394 53.7524 14.2975C54.0383 13.3271 54.514 12.4231 55.1519 11.6378C55.7552 10.9107 56.5219 10.3365 57.3892 9.96185C58.3477 9.56098 59.379 9.36352 60.4177 9.38198C60.9861 9.37585 61.5531 9.43717 62.107 9.56465C62.6238 9.69342 63.1285 9.86669 63.6154 10.0825V2.84912L68.1505 2.11841L68.1488 25.213ZM57.892 17.6042C57.892 19.003 58.2066 20.1293 58.8356 20.9829C59.4646 21.8365 60.397 22.2644 61.6328 22.2667C62.0383 22.2667 62.4121 22.2516 62.7573 22.2214C63.1026 22.1913 63.3875 22.1561 63.6104 22.1158V13.8668C63.2655 13.6588 62.8908 13.5051 62.4992 13.411C62.0478 13.2896 61.5823 13.2281 61.1149 13.2283C58.9652 13.2283 57.8909 14.6892 57.892 17.6109V17.6042Z" fill="#544E50" />
        <path d="M76.3649 5.10175C76.3649 5.93303 76.0962 6.5872 75.5588 7.06429C75.0325 7.52558 74.3564 7.7799 73.6566 7.7799C72.9567 7.7799 72.2807 7.52558 71.7544 7.06429C71.2158 6.58832 70.9471 5.93414 70.9482 5.10175C70.9494 4.26937 71.2181 3.61463 71.7544 3.13754C72.2812 2.67725 72.957 2.42358 73.6566 2.42358C74.3561 2.42358 75.032 2.67725 75.5588 3.13754C76.0973 3.61574 76.366 4.27048 76.3649 5.10175ZM75.9392 25.7377H71.4041V9.72738H75.9392V25.7377Z" fill="#544E50" />
        <path d="M93.7425 17.7332C93.7585 18.9136 93.5679 20.0877 93.1794 21.2025C92.8319 22.1914 92.2765 23.0944 91.5504 23.8505C90.8134 24.6022 89.9195 25.182 88.9325 25.5482C87.8022 25.9603 86.6059 26.1614 85.403 26.1415C84.8544 26.1415 84.2812 26.1158 83.6835 26.0644C83.0857 26.013 82.4952 25.9443 81.912 25.8582C81.3343 25.7778 80.7818 25.6817 80.2545 25.57C79.7271 25.4582 79.2617 25.3393 78.8584 25.213V2.84912L83.3935 2.11841V10.0926C83.9034 9.869 84.4338 9.69556 84.9773 9.57471C85.5572 9.45004 86.1489 9.38879 86.7421 9.39203C87.7786 9.37181 88.8075 9.57472 89.7588 9.98699C90.6125 10.3686 91.3633 10.9476 91.9492 11.6764C92.5648 12.4567 93.0204 13.3509 93.29 14.3076C93.6054 15.4216 93.7578 16.5755 93.7425 17.7332ZM89.1152 17.6109C89.1152 14.688 88.0398 13.2272 85.889 13.2283C85.4215 13.2282 84.9561 13.2897 84.5047 13.411C84.1131 13.5051 83.7383 13.6588 83.3935 13.8668V22.1158C83.6164 22.1561 83.8963 22.1913 84.2466 22.2214C84.5968 22.2516 84.9656 22.2667 85.3728 22.2667C86.6097 22.2667 87.5426 21.841 88.1716 20.9896C88.8007 20.1382 89.1163 19.012 89.1186 17.6109H89.1152Z" fill="#544E50" />
        <path d="M20.6827 22.3303C19.7078 23.613 18.4744 24.6766 17.0624 25.4523C15.6503 26.2281 14.0911 26.6987 12.4857 26.8336C11.8232 26.8906 11.1571 26.8906 10.4946 26.8336C8.44587 26.6495 6.48378 25.9201 4.81224 24.7212C3.14069 23.5223 1.82069 21.8977 0.989384 20.0162C0.158074 18.1346 -0.154211 16.0647 0.0849759 14.0217C0.324163 11.9786 1.1061 10.0368 2.34953 8.39817C3.38789 7.03358 4.71772 5.91794 6.24205 5.13264C7.76639 4.34733 9.44678 3.91216 11.1607 3.85884C12.8746 3.80553 14.5788 4.13542 16.149 4.82447C17.7192 5.51351 19.1158 6.54433 20.2369 7.84175C19.0383 8.49529 17.8909 9.23875 16.8046 10.0657C16.5661 9.82567 16.3119 9.60172 16.0437 9.39536C15.2618 8.79243 14.3684 8.35012 13.4149 8.0939C12.4614 7.83767 11.4666 7.77259 10.4878 7.90241C9.50901 8.03222 8.56557 8.35436 7.7118 8.85028C6.85803 9.34621 6.11079 10.0061 5.51311 10.792C4.91543 11.5779 4.47911 12.4743 4.22926 13.4295C3.97942 14.3847 3.92099 15.3799 4.05735 16.3578C4.19371 17.3357 4.52216 18.277 5.02379 19.1274C5.52541 19.9778 6.1903 20.7206 6.98018 21.313L7.06732 21.3801C7.31201 21.5661 7.55335 21.7572 7.78966 21.9499L7.82318 21.8695C9.09159 22.5875 10.542 22.9198 11.9965 22.8253C13.4511 22.7309 14.8464 22.2139 16.0113 21.3378C17.1762 20.4618 18.06 19.2647 18.5543 17.8935C19.0486 16.5223 19.1319 15.0366 18.7939 13.6188C19.8883 12.7439 21.0595 11.9698 22.2933 11.3059C22.9762 13.1297 23.1862 15.0967 22.9037 17.0236C22.6212 18.9504 21.8554 20.7743 20.6777 22.3253L20.6827 22.3303Z" fill="#544E50" />
        <path d="M7.10237 28.8046C8.76938 28.8046 10.1208 27.4532 10.1208 25.7862C10.1208 24.1192 8.76938 22.7678 7.10237 22.7678C5.43536 22.7678 4.08398 24.1192 4.08398 25.7862C4.08398 27.4532 5.43536 28.8046 7.10237 28.8046Z" fill="#F2656F" />
        <path d="M88.6577 27.0416C88.8974 26.8907 89.3281 27.0416 89.2141 27.2293C86.9466 31.3873 80.2126 34.1861 72.9407 33.9917C66.3307 33.8241 60.4917 31.1979 58.2979 27.4555C58.1823 27.2611 58.6063 27.1203 58.851 27.2611C60.8621 28.4946 65.6453 30.8929 72.8183 31.0538C80.9953 31.2465 86.5209 28.384 88.6577 27.0416Z" fill="#F2656F" />
    </g>
    <defs>
        <clipPath id="clip0_5298_32743">
            <rect width="97.7917" height="34" fill="white" />
        </clipPath>
    </defs>
</svg>
