<svg width="80" height="33" viewBox="0 0 80 33" fill="none" xmlns="http://www.w3.org/2000/svg">
    <path d="M14.0313 12.8772C13.6729 12.7365 13.5193 12.826 13.3401 13.1204C12.841 13.8755 12.2651 14.5922 11.6636 15.2577C11.0493 15.936 10.3966 16.5759 9.69265 17.1518C8.6176 18.0221 7.49136 18.79 6.19874 19.3019C5.7252 19.4939 5.23887 19.6219 4.72694 19.6859C3.86946 19.8011 3.20395 19.4939 2.71762 18.79C2.43606 18.3677 2.24408 17.9069 2.1545 17.4206C2.01372 16.6271 2.05211 15.8464 2.18009 15.0657C2.33367 14.1443 2.60243 13.274 2.97358 12.4293C3.63909 10.8935 4.49657 9.43451 5.54603 8.12909C7.10741 6.17096 9.12953 4.37921 11.4204 3.36815C11.9579 3.13778 12.5211 2.84342 13.1098 3.0098C13.3273 3.07379 13.4297 3.22737 13.4553 3.43214C13.4809 3.64971 13.4681 3.86728 13.4169 4.08485C13.3018 4.62238 13.033 5.09591 12.7258 5.53105C12.2651 6.17096 11.7148 6.69569 11.0749 7.11803C10.8701 7.25881 9.79504 7.65556 9.98701 7.97551C10.2174 8.35946 11.0237 7.86033 11.2924 7.70675C11.7276 7.47638 12.1499 7.16922 12.4955 6.83647C13.225 6.15816 13.9417 5.22389 13.9673 4.18724C13.9929 3.26576 13.4553 2.44668 12.5083 2.2931C10.7165 1.98594 8.51521 3.35535 7.197 4.39201C4.67575 6.38853 2.78161 8.85859 1.46339 11.7894C0.989857 12.8516 0.657103 13.9523 0.490726 15.1041C0.375542 15.9616 0.401139 16.8063 0.60591 17.651C0.887471 18.7772 1.56578 19.5579 2.64083 20.0058C2.74321 20.0442 2.8456 20.0826 2.94799 20.1082C3.94625 20.4282 4.82933 20.3258 5.84039 20.0954C7.1714 19.8011 8.37443 19.2124 9.47508 18.4317C9.98701 18.0605 10.4733 17.6638 10.9469 17.2414C11.9707 16.2816 12.9178 15.2193 13.7369 14.0803C13.8649 13.9011 14.0057 13.7347 14.1336 13.5555C14.2232 13.4276 14.2744 13.2996 14.2744 13.1844C14.2744 13.0564 14.1976 12.954 14.0313 12.8772ZM14.3852 12.4805C14.5388 12.2629 14.7052 12.0581 14.8459 11.8406C15.1915 11.2775 15.1147 10.8295 14.5516 10.3688C14.5132 10.3432 14.462 10.3176 14.4108 10.292C14.1804 10.1512 13.9245 10.1256 13.6685 10.2536C13.1566 10.5224 12.8238 10.9447 12.6574 11.495C12.5679 11.7766 12.619 12.0453 12.7342 12.2885C13.0798 12.9668 13.8349 13.402 14.654 13.274C14.7691 13.2612 14.8843 13.2356 15.0507 13.21C14.9483 13.338 14.8843 13.4148 14.8331 13.5043C14.526 13.9523 14.206 14.3874 13.9117 14.8354C13.5661 15.3729 13.3485 15.9616 13.2718 16.5887C13.2334 16.9343 13.2718 17.2542 13.4253 17.5742C13.6813 18.1245 14.398 18.4829 15.0379 18.2013C15.3067 18.0861 15.5626 17.9325 15.793 17.7534C16.1258 17.4846 16.4457 17.1902 16.7273 16.8703C17.6999 15.7568 18.6342 14.6306 19.5173 13.4404C19.5685 13.3764 19.6197 13.2996 19.6581 13.2356C19.7221 13.146 19.7093 13.0436 19.6581 12.954C19.4917 12.6853 19.3125 12.6725 19.1077 12.9284C18.8006 13.338 18.4934 13.7603 18.1607 14.1699C17.5336 14.9761 16.8937 15.7824 16.177 16.5119C15.8698 16.8319 15.5498 17.1134 15.2299 17.4078C15.0123 17.5998 14.7436 17.7534 14.462 17.8429C14.4364 17.8557 14.398 17.8557 14.3724 17.8557C14.2444 17.8301 14.2188 17.5614 14.1932 17.4718C14.1676 17.331 14.1676 17.1774 14.1932 17.0367C14.2572 16.4095 14.4748 15.8464 14.7819 15.2961C15.2555 14.4642 15.7546 13.6451 16.3049 12.8516C16.3561 12.8004 16.3817 12.7237 16.4201 12.6597C16.3817 12.5701 16.3561 12.4677 16.3177 12.3909C16.2025 12.1861 16.0362 12.1349 15.8314 12.2117C15.6906 12.2629 15.5626 12.3269 15.4347 12.3781C15.0763 12.5189 14.6924 12.6085 14.27 12.6597C14.3212 12.5829 14.3596 12.5189 14.3852 12.4805ZM14.59 11.2647C14.3852 11.751 14.1036 12.1861 13.7069 12.5317C13.6685 12.5701 13.6045 12.5957 13.5405 12.5957C13.4381 12.6085 13.3741 12.5317 13.3485 12.4165C13.3101 12.2501 13.3357 12.0965 13.3869 11.943C13.5661 11.4822 13.8477 11.1111 14.2572 10.8551C14.3596 10.7911 14.4492 10.7527 14.5772 10.8039C14.6668 10.9575 14.654 11.1239 14.59 11.2647ZM19.7743 14.4898C20.8749 14.2338 21.7324 13.6195 22.4235 12.7493C22.5131 12.6341 22.5899 12.5189 22.6539 12.3909C22.769 12.1605 22.7434 11.9302 22.6027 11.7126C22.5515 11.6358 22.4875 11.559 22.4107 11.495C22.0011 11.1111 21.5148 10.9959 20.9773 11.1495C20.491 11.2903 20.0814 11.5462 19.7231 11.8918C18.9296 12.6341 18.4944 13.5555 18.5072 14.6434C18.5072 15.6161 18.9552 16.32 19.8638 16.7039C20.6701 17.0495 21.4764 17.0751 22.2699 16.6527C22.5387 16.4991 22.8202 16.3584 23.089 16.1792C24.0745 15.5393 24.9575 14.7714 25.6614 13.8243C25.7766 13.6707 25.8662 13.5043 25.9686 13.338C26.0582 13.1716 25.9814 13.0308 25.8534 12.9156C25.7894 12.8516 25.7126 12.8004 25.6358 12.762C25.5974 12.7493 25.5463 12.7365 25.5079 12.7237C25.4439 12.7237 25.4311 12.7365 25.4055 12.7748C25.2007 13.0692 25.0087 13.3636 24.7912 13.6323C24.5736 13.9139 24.3432 14.1699 24.1001 14.413C23.4985 15.0145 22.8202 15.5265 22.0907 15.9488C21.7964 16.1152 21.4764 16.2304 21.1693 16.3456C21.0029 16.4223 20.8109 16.4223 20.6317 16.4351C20.2478 16.4351 19.9918 16.2688 19.8254 15.936C19.5823 15.5009 19.5567 15.0401 19.6207 14.5538C19.6719 14.5282 19.7231 14.5026 19.7743 14.4898ZM19.7359 13.9651C20.0174 13.0564 20.5549 12.3269 21.3868 11.8534C21.5276 11.7766 21.6812 11.7254 21.8348 11.6742C21.95 11.6358 22.0651 11.6486 22.1803 11.7126C22.2443 11.8662 22.2059 11.9942 22.1419 12.1221C22.0395 12.2885 21.9372 12.4549 21.822 12.6085C21.4508 13.082 20.9773 13.4404 20.4782 13.7603C20.2478 13.9011 20.0174 14.0419 19.7103 14.1571C19.7231 14.0675 19.7231 14.0163 19.7359 13.9651ZM32.9302 3.7393C32.7639 3.49613 32.6103 3.52173 32.4951 3.80329C32.3159 4.23843 32.1367 4.67357 31.9576 5.12151C31.5864 6.09417 31.1641 7.05404 30.6777 7.98831C30.409 8.48744 30.153 8.98657 29.8843 9.4857C29.3467 10.484 28.8092 11.5078 28.2589 12.5061C27.8237 13.2868 27.3246 14.0163 26.7359 14.6818C26.5439 14.8994 26.3391 15.1169 26.096 15.2705C26.0576 15.2961 25.9936 15.2961 25.9424 15.3089C25.8784 14.9761 25.9424 14.6818 25.9808 14.3874C26.0576 13.7347 26.3007 13.1332 26.6591 12.5829C26.7871 12.3909 26.9407 12.2245 27.1326 12.0837C27.4014 11.8918 27.7086 11.7894 28.0413 11.9302C28.0541 11.9302 28.0797 11.9174 28.0925 11.9046C28.1053 11.8918 28.1181 11.8662 28.1181 11.8534C28.0157 11.4566 27.6318 11.1367 27.235 11.1111C26.6591 11.0599 26.2112 11.2775 25.8528 11.687C25.1233 12.5445 24.8418 13.5683 24.8673 14.669C24.8801 15.3473 25.2641 15.7952 25.8784 16.0512C26.1728 16.1792 26.4671 16.1536 26.7487 16C26.8895 15.9104 27.043 15.808 27.1582 15.68C27.3758 15.4625 27.5806 15.2193 27.7725 14.9761C28.0669 14.5666 28.3357 14.1571 28.6172 13.7475C28.6428 13.7091 28.6812 13.6707 28.7068 13.6451C28.6812 13.8371 28.63 14.0035 28.5788 14.1827C28.1821 15.4625 27.8877 16.7679 27.6702 18.0989C27.555 18.7516 27.4398 19.4171 27.3758 20.0826C27.363 20.2362 27.3374 20.4026 27.3502 20.569C27.3502 20.7097 27.427 20.8377 27.5678 20.8889C27.7725 20.9657 27.9773 20.9785 28.1693 20.8505C28.1949 20.6842 28.2205 20.505 28.2461 20.3386C28.3613 19.2252 28.566 18.1117 28.7964 17.0111C29.2827 14.7074 30.0378 12.4933 30.9081 10.3176C31.2537 9.43451 31.6248 8.57703 31.9832 7.70675C32.0472 7.54037 32.0855 7.3484 32.1751 7.19482C32.5463 6.43972 32.815 5.65903 33.135 4.89114C33.3142 4.456 33.199 4.08485 32.9302 3.7393ZM35.9572 13.0436C35.8676 12.89 35.7396 12.762 35.5221 12.7876C35.4581 12.9156 35.3941 13.0564 35.3301 13.1972C34.895 14.1315 34.3062 14.9633 33.5255 15.6672C33.2568 15.9104 32.9752 16.1152 32.6425 16.256C32.4633 16.3456 32.2841 16.3967 32.0793 16.4223C31.9258 16.4351 31.8106 16.3711 31.7466 16.2304C31.657 16.0512 31.6186 15.8592 31.6058 15.6544C31.5802 15.2321 31.6186 14.8226 31.7082 14.4002C31.8746 13.6835 32.1305 12.9924 32.4761 12.3397C32.5529 12.1989 32.6169 12.0581 32.6809 11.9046C32.7449 11.7638 32.7449 11.6358 32.6809 11.495C32.5785 11.3286 32.4505 11.2007 32.2841 11.1239C32.1177 11.0471 31.9898 11.0727 31.8618 11.2007C31.7722 11.3158 31.6826 11.4438 31.6058 11.5718C31.2475 12.1605 30.9659 12.8004 30.7867 13.466C30.6331 14.0291 30.5564 14.5922 30.6331 15.1681C30.6587 15.4497 30.7483 15.7184 30.8891 15.9616C31.2219 16.5631 32.0538 17.0111 32.8728 16.7167C33.1544 16.6143 33.4104 16.4735 33.6535 16.3072C33.9351 16.1024 34.1911 15.872 34.4214 15.6161C35.0485 14.9377 35.5221 14.1699 35.906 13.338C35.9316 13.2996 35.9572 13.2484 35.97 13.1972C35.97 13.146 35.9828 13.082 35.9572 13.0436ZM32.9112 10.8039C33.0648 10.8295 33.1288 10.8167 33.2056 10.6759C33.372 10.356 33.5383 10.0488 33.6919 9.72887C33.7175 9.69047 33.7175 9.63928 33.7431 9.60089C33.7047 9.54969 33.6919 9.4857 33.6535 9.46011C33.5639 9.37052 33.4616 9.28093 33.3592 9.22974C33.1288 9.10176 33.0264 9.12735 32.8856 9.34492C32.7193 9.60089 32.5657 9.88245 32.4121 10.1512C32.3993 10.1896 32.3865 10.228 32.3737 10.2664C32.3353 10.3688 32.3609 10.4456 32.4121 10.5096C32.5401 10.6631 32.7065 10.7655 32.9112 10.8039ZM42.7865 13.0052C42.7353 12.9284 42.6585 12.8644 42.5817 12.8132C42.5049 12.7493 42.4153 12.8004 42.3257 12.826C41.8138 12.9156 41.3019 13.082 40.8027 13.2356C40.7132 13.2612 40.6364 13.2868 40.534 13.3124C40.534 13.1716 40.534 13.0692 40.534 12.9668C40.534 12.4165 40.342 11.9558 39.9325 11.5846C39.6893 11.3542 39.4077 11.2519 39.075 11.2519C38.8318 11.2647 38.6142 11.3286 38.3967 11.431C38.0255 11.5974 37.6928 11.815 37.3856 12.0709C37.0145 12.3909 36.6689 12.7365 36.3746 13.1204C36.3234 13.1844 36.2978 13.274 36.1954 13.274C36.2082 13.1972 36.221 13.1076 36.2466 13.0308C36.4513 12.3781 36.6433 11.7254 36.8865 11.0855C37.744 8.83299 38.6142 6.5933 39.4717 4.34081C39.5997 4.03366 39.5741 3.91847 39.3437 3.7265C39.3053 3.68811 39.2542 3.66251 39.203 3.63691C39.0366 3.53453 38.9598 3.54733 38.8574 3.7137C38.7806 3.81609 38.7166 3.93127 38.6654 4.04646C38.4351 4.53279 38.2047 5.03192 37.9871 5.51825C37.1936 7.25881 36.4769 9.01217 35.8242 10.8039C35.1459 12.6597 34.6084 14.5666 34.0325 16.4607C34.0069 16.5631 33.9685 16.6655 33.9557 16.7679C33.9301 16.8575 33.9173 16.9343 33.9301 17.0239C33.9301 17.0878 33.9557 17.1518 33.9941 17.203C34.1093 17.331 34.2628 17.4078 34.442 17.4334C34.6084 17.4462 34.7364 17.4078 34.8388 17.267C34.9539 17.1262 35.0307 16.9727 35.0819 16.8063C35.1971 16.4735 35.2995 16.128 35.4147 15.7952C35.4531 15.6544 35.5043 15.5009 35.5811 15.3729C36.0802 14.477 36.7201 13.6963 37.5008 13.0308C37.9359 12.6725 38.4095 12.3653 38.9342 12.1605C39.1262 12.0837 39.3309 12.0325 39.5357 12.0198C39.6253 12.007 39.7149 12.007 39.8045 12.1093C39.8173 12.1989 39.8301 12.3141 39.8301 12.4293C39.8557 12.8132 39.7533 13.1716 39.6509 13.5427C39.6125 13.6835 39.5229 13.7603 39.3949 13.8115C38.9982 14.0163 38.5886 14.221 38.1919 14.4386C37.552 14.7842 36.9505 15.1937 36.4001 15.6672C36.1698 15.872 35.965 16.0896 35.773 16.3328C35.5939 16.5631 35.4787 16.8191 35.3763 17.1006C35.2995 17.3438 35.3379 17.5742 35.5043 17.7662C35.8114 18.1245 36.1826 18.3037 36.6561 18.2269C36.8993 18.1885 37.1296 18.0989 37.3472 17.9837C37.7184 17.779 38.0383 17.5358 38.3327 17.2414C38.7294 16.8447 39.0878 16.4351 39.4077 15.9744C39.7405 15.5009 40.0348 15.0017 40.2268 14.4386C40.278 14.285 40.3804 14.1955 40.534 14.1315C41.1995 13.8627 41.8778 13.6067 42.5817 13.4148C42.6585 13.3892 42.7353 13.3508 42.8121 13.338C42.8633 13.21 42.8505 13.0948 42.7865 13.0052ZM36.157 13.3124C36.1698 13.3124 36.1826 13.2996 36.1826 13.2868C36.1826 13.2996 36.1826 13.3124 36.1826 13.3252C36.1698 13.3252 36.1698 13.3252 36.157 13.3124ZM38.8574 15.0401C38.3711 15.7184 37.8208 16.3584 37.1808 16.9215C36.9377 17.139 36.6689 17.3182 36.3874 17.4718C36.2722 17.523 36.1442 17.5614 35.9906 17.6254C36.0034 17.3054 36.1058 17.0878 36.2466 16.8831C36.4001 16.6783 36.5537 16.4863 36.7329 16.32C37.3472 15.7568 38.0255 15.3089 38.7678 14.9505C38.8062 14.9377 38.8446 14.9249 38.9342 14.8994C38.8958 14.9761 38.883 15.0145 38.8574 15.0401ZM55.1835 4.28962C55.2091 3.98246 55.1708 3.67531 55.1068 3.38095C54.7356 1.81956 53.2382 0.731715 51.6 0.8469C50.5378 0.910891 49.5139 1.15406 48.5285 1.5764C46.7367 2.34429 45.2137 3.48333 43.9723 4.98073C43.4732 5.56944 43.0508 6.20936 42.7309 6.90046C42.4621 7.45078 42.2061 8.23148 42.6285 8.7818C42.9868 9.24254 43.6523 9.39611 44.2027 9.43451C45.3161 9.5113 46.404 9.12735 47.4278 8.73061C48.4901 8.32106 49.5139 7.79634 50.5762 7.374C51.4465 7.01564 52.3295 6.68289 53.1998 6.33734C53.2894 6.31174 53.379 6.28615 53.5198 6.24775C53.4686 6.37573 53.3278 6.69569 53.2894 6.78528C51.4337 11.0471 49.8211 15.3985 48.5029 19.8651C48.2853 20.569 49.4115 20.7993 49.6291 20.1594C49.8339 19.5707 50.0387 18.9692 50.2434 18.3677C50.9601 16.32 51.6512 14.2338 52.4319 12.1989C53.2126 10.2024 54.0701 8.24427 54.7228 6.20936C54.7868 6.03018 55.03 5.72302 55.2091 5.67183C55.6955 5.54385 56.1818 5.37747 56.6681 5.23669C57.628 4.96793 58.6007 4.71196 59.5861 4.4816C60.9811 4.17444 62.3634 3.86728 63.784 3.7137C65.0254 3.57292 66.254 3.58572 67.4826 3.54733C67.777 3.53453 67.6234 3.27856 67.5338 3.13778C67.3675 2.89462 67.1755 2.86902 66.9067 2.83062C66.0876 2.72824 65.1662 2.77943 64.3599 2.81783C61.3139 2.92021 58.3575 3.68811 55.4267 4.4688C55.3499 4.49439 55.2731 4.50719 55.1835 4.51999C55.1835 4.4304 55.1835 4.35361 55.1835 4.28962ZM43.422 8.10349C43.5756 7.55317 43.8443 7.06684 44.1643 6.5933C44.817 5.59504 45.6233 4.75036 46.5703 4.02086C47.735 3.12498 49.0276 2.47227 50.461 2.08833C51.1905 1.89635 51.92 1.80677 52.6751 1.84516C52.9951 1.87076 53.3022 1.94755 53.5838 2.07553C54.0317 2.2931 54.2749 2.65145 54.2877 3.15058C54.3005 3.35535 54.2877 3.56012 54.2621 3.7649C54.2109 4.16164 54.0957 4.54559 53.9549 4.92953C53.699 5.01912 53.4558 5.09591 53.2126 5.1855C51.4593 5.76142 49.7955 6.51651 48.1189 7.25881C47.3766 7.59157 46.6471 7.92432 45.9176 8.24427C45.3289 8.50024 44.7146 8.70501 44.0747 8.83299C43.8827 8.87139 43.614 8.93538 43.422 8.84579C43.3964 8.83299 43.3836 8.82019 43.3708 8.7946C43.2428 8.64102 43.3836 8.25707 43.422 8.10349ZM54.6459 14.4898C55.7466 14.2338 56.6041 13.6195 57.2952 12.7493C57.3847 12.6341 57.4615 12.5189 57.5255 12.3909C57.6407 12.1605 57.6151 11.9302 57.4743 11.7126C57.4231 11.6358 57.3591 11.559 57.2824 11.495C56.8728 11.1111 56.3865 10.9959 55.849 11.1495C55.3626 11.2903 54.9531 11.5462 54.5947 11.8918C53.8012 12.6341 53.3661 13.5555 53.3789 14.6434C53.3789 15.6161 53.8268 16.32 54.7355 16.7039C55.5418 17.0495 56.3481 17.0751 57.1416 16.6527C57.4103 16.4991 57.6919 16.3584 57.9607 16.1792C58.9461 15.5393 59.8292 14.7714 60.5331 13.8243C60.6483 13.6707 60.7379 13.5043 60.8403 13.338C60.9299 13.1716 60.8531 13.0308 60.7251 12.9156C60.6611 12.8516 60.5843 12.8004 60.5075 12.762C60.4691 12.7493 60.4179 12.7365 60.3795 12.7237C60.3155 12.7237 60.3027 12.7365 60.2771 12.7748C60.0724 13.0692 59.8804 13.3636 59.6628 13.6323C59.4453 13.9139 59.2149 14.1699 58.9717 14.413C58.3702 15.0145 57.6919 15.5265 56.9624 15.9488C56.668 16.1152 56.3481 16.2304 56.0409 16.3456C55.8746 16.4223 55.6826 16.4223 55.5034 16.4351C55.1195 16.4351 54.8635 16.2688 54.6971 15.936C54.4539 15.5009 54.4284 15.0401 54.4923 14.5538C54.5435 14.5282 54.5947 14.5026 54.6459 14.4898ZM54.6075 13.9651C54.8891 13.0564 55.4266 12.3269 56.2585 11.8534C56.3993 11.7766 56.5529 11.7254 56.7064 11.6742C56.8216 11.6358 56.9368 11.6486 57.052 11.7126C57.116 11.8662 57.0776 11.9942 57.0136 12.1221C56.9112 12.2885 56.8088 12.4549 56.6936 12.6085C56.3225 13.082 55.849 13.4404 55.3498 13.7603C55.1195 13.9011 54.8891 14.0419 54.5819 14.1571C54.5947 14.0675 54.5947 14.0163 54.6075 13.9651ZM68.6978 13.082C68.6466 12.9924 68.5826 12.9028 68.5186 12.826C68.4034 12.7109 68.3266 12.7237 68.2114 12.8388C67.8915 13.146 67.5715 13.4532 67.2516 13.7475C66.7396 14.2082 66.2021 14.6178 65.6006 14.9633C65.3318 15.1041 65.0631 15.2321 64.7687 15.3089C64.5767 15.3601 64.3848 15.3985 64.1928 15.3729C64.0648 15.3601 63.988 15.3089 63.9624 15.1809C63.9368 15.0401 63.8984 14.8866 63.8984 14.733C63.9112 14.4514 63.9368 14.1699 63.9752 13.9011C64.0264 13.5939 64.116 13.3124 64.1672 13.0052C64.2312 12.6853 64.1672 12.3909 63.8984 12.1605C63.6937 11.9686 63.6041 12.007 63.4761 12.1733C63.4377 12.2245 63.3865 12.2629 63.3353 12.3141C62.977 12.6981 62.6186 13.082 62.2347 13.4532C61.8763 13.8115 61.4796 14.1315 61.0316 14.3874C60.8653 14.477 60.6989 14.5282 60.5197 14.605C60.4685 14.6178 60.4045 14.605 60.3405 14.6178C60.3149 14.349 60.3149 14.285 60.4173 14.0547C60.5965 13.6323 60.8525 13.2612 61.198 12.954C61.5436 12.6469 61.9403 12.4933 62.4138 12.5445C62.4778 12.5573 62.5546 12.5445 62.6186 12.5445C62.657 12.3909 62.5802 12.3141 62.5034 12.2373C62.1195 11.815 61.5948 11.6486 60.9932 11.9046C60.3277 12.1861 59.8542 12.6981 59.547 13.3636C59.3807 13.7219 59.3551 14.1187 59.5342 14.4898C59.675 14.797 59.8926 15.0273 60.1742 15.2065C60.3661 15.3345 60.5709 15.3729 60.8013 15.3473C61.0828 15.3089 61.3388 15.2193 61.582 15.0657C61.8379 14.8994 62.0811 14.7202 62.3115 14.5282C62.5546 14.3106 62.785 14.0803 63.0282 13.8627C63.0794 13.8115 63.1305 13.7731 63.2329 13.6963C63.2201 13.8243 63.2073 13.8883 63.1945 13.9651C63.1433 14.2466 63.1689 14.5154 63.2457 14.797C63.3865 15.3857 64.0136 15.9232 64.6919 15.872C64.9607 15.8592 65.2295 15.7952 65.4726 15.68C65.7798 15.5393 66.0741 15.3985 66.3685 15.2193C67.2132 14.7202 67.9427 14.0803 68.6338 13.402C68.749 13.2868 68.7746 13.2228 68.6978 13.082ZM79.353 12.8388C79.2122 12.7237 79.1482 12.7237 79.0202 12.8388C78.9691 12.8772 78.9179 12.9284 78.8667 12.9668C78.6875 13.1332 78.4955 13.2996 78.3035 13.4532C77.9068 13.7859 77.5101 14.1315 77.1133 14.4642C76.755 14.7714 76.4094 15.0785 76.0127 15.3345C75.7567 15.5009 75.4367 15.7312 75.1296 15.7568C74.9504 15.7824 75.0656 15.3345 75.0912 15.2449C75.1936 14.8994 75.3088 14.5538 75.4111 14.221C75.5135 13.9395 75.6159 13.6451 75.7183 13.3636C75.8335 13.018 75.7055 12.7237 75.4623 12.4805C75.3344 12.3397 75.1808 12.2885 74.9888 12.3269C74.7584 12.3781 74.5281 12.4549 74.3233 12.5701C73.6706 12.9668 73.0819 13.4276 72.5827 14.0163C72.5315 14.0675 72.4804 14.1187 72.4036 14.1827C72.3908 14.0163 72.4548 13.9011 72.4932 13.7859C72.7235 13.1716 72.9923 12.5701 73.2866 11.9686C73.3634 11.815 73.4402 11.6614 73.517 11.5078C73.6578 11.2007 73.6066 10.9191 73.4018 10.6631C73.2355 10.4328 73.0819 10.3304 72.7619 10.4712C72.7235 10.484 72.6851 10.4968 72.6339 10.5096C71.9428 10.7783 71.3413 11.2007 70.7782 11.687C70.1511 12.2245 69.5496 12.8004 68.9992 13.4276C68.9608 13.466 68.9224 13.4915 68.8841 13.5299C68.8713 13.5171 68.8713 13.5171 68.8585 13.5043C68.8713 13.4404 68.8841 13.3892 68.9096 13.3252C69.076 12.9412 69.2296 12.5573 69.396 12.1605C69.4472 12.007 69.5112 11.8662 69.5752 11.7126C69.6008 11.623 69.6136 11.5206 69.5624 11.431C69.4472 11.2263 69.2808 11.0727 69.0504 11.0087C68.9608 10.9831 68.8713 11.0087 68.8201 11.0855C68.7817 11.1495 68.7561 11.2007 68.7177 11.2647C68.5385 11.623 68.3337 11.9814 68.1802 12.3653C67.745 13.3508 67.3355 14.349 66.9131 15.3473C66.8363 15.5393 66.7851 15.7312 66.7084 15.9232C66.67 16.0384 66.6956 16.1152 66.7723 16.192C66.9515 16.3839 67.1691 16.4863 67.4379 16.4735C67.5402 16.4607 67.617 16.4095 67.6554 16.32C67.7194 16.1792 67.7834 16.0384 67.873 15.9104C68.1546 15.5137 68.4489 15.1297 68.7433 14.7458C69.5624 13.7091 70.5222 12.8388 71.5717 12.0325C71.7637 11.8918 71.9684 11.7766 72.1604 11.6358C72.2116 11.6102 72.25 11.5718 72.3012 11.623C72.0964 12.0453 71.8916 12.4677 71.6997 12.8772C71.4565 13.3764 71.3029 13.8883 71.2517 14.4258C71.2389 14.6434 71.2773 14.8098 71.4053 14.9761C71.5205 15.1297 71.6741 15.2449 71.8404 15.3601C71.9556 15.4369 72.0196 15.4497 72.122 15.3473C72.25 15.2193 72.378 15.0785 72.4932 14.9377C73.0435 14.2978 73.6962 13.7987 74.4129 13.3636C74.5665 13.274 74.72 13.1972 74.8736 13.1204C74.8992 13.0948 74.9376 13.1076 75.0144 13.0948C74.976 13.1972 74.9504 13.2612 74.912 13.3252C74.8096 13.5427 74.7072 13.7603 74.6049 13.9651C74.4641 14.2594 74.3617 14.5794 74.3105 14.8994C74.1953 15.4753 74.5153 16.1152 75.0272 16.4095C75.232 16.5119 75.4367 16.5503 75.6543 16.4735C75.8207 16.4223 75.9871 16.3711 76.1278 16.2816C76.4094 16.1152 76.6782 15.936 76.9341 15.744C77.2413 15.4881 77.5485 15.2321 77.8556 14.9633C78.1372 14.7202 78.4187 14.4642 78.7003 14.221C78.8283 14.0931 78.9691 13.9651 79.1098 13.8371C79.2378 13.7091 79.3914 13.5939 79.4938 13.4532C79.6218 13.274 79.5194 12.9668 79.353 12.8388Z" fill="#544E50" />
    <path d="M54.9019 25.0616C55.1415 24.9107 55.5723 25.0616 55.4583 25.2493C53.1907 29.4073 46.4568 32.2062 39.1848 32.0118C32.5749 31.8442 26.7359 29.2179 24.542 25.4755C24.4264 25.2811 24.8504 25.1404 25.0951 25.2811C27.1063 26.5146 31.8894 28.9129 39.0625 29.0738C47.2394 29.2665 52.765 26.404 54.9019 25.0616Z" fill="#F2656F" />
</svg>