<svg width="26" height="25" viewBox="0 0 26 25" fill="none" xmlns="http://www.w3.org/2000/svg">
    <rect x="0.81543" y="0.134277" width="24.3691" height="24.3691" rx="3.48131" fill="#544E50" />
    <path d="M10.7517 18.0851C9.00808 18.0851 7.38271 17.5779 6.01465 16.7029C7.17617 16.778 9.226 16.598 10.501 15.3819C8.58299 15.2939 7.71801 13.8229 7.60518 13.1942C7.76815 13.2571 8.54538 13.3325 8.98414 13.1565C6.77781 12.6033 6.43934 10.6671 6.51455 10.0762C6.92824 10.3653 7.63025 10.4659 7.90605 10.4408C5.85014 8.96975 6.58977 6.75692 6.95331 6.27916C8.4287 8.32319 10.6399 9.47119 13.3753 9.53505C13.3238 9.30884 13.2965 9.07333 13.2965 8.83145C13.2965 7.0955 14.6997 5.68823 16.4305 5.68823C17.3349 5.68823 18.1498 6.0724 18.7218 6.6869C19.3261 6.54529 20.2356 6.21379 20.6802 5.92712C20.4561 6.73178 19.7584 7.40303 19.3363 7.65182C19.3398 7.66029 19.3329 7.64332 19.3363 7.65182C19.7071 7.59575 20.7102 7.40297 21.1064 7.13411C20.9105 7.58616 20.1707 8.33777 19.5637 8.75856C19.6766 13.7397 15.8655 18.0851 10.7517 18.0851Z" fill="#FFFFFB" />
</svg>